<svg xmlns="http://www.w3.org/2000/svg" data-name="16" viewBox="0 0 64 64" id="google-drive"><path fill="#1d83f2" fill-rule="evenodd" d="m42.48,40.98h-20.97s-11.43,11.3-9.7,14.06c.75,1.2,2.06,1.93,3.48,1.93h33.41c1.41,0,2.73-.73,3.48-1.93,1.73-2.76-9.7-14.06-9.7-14.06Z"></path><path fill="#f9b406" fill-rule="evenodd" d="m38.82,7.03c1.34,0,2.58.72,3.26,1.87,3.29,5.58,13.08,22.22,17.12,29.08,1.09,1.85,1.06,4.15-.08,5.96-2.03,3.24-16.46-2.48-16.46-2.48l-10.78-18.35,6.94-16.08Z"></path><path fill="#0ba84a" fill-rule="evenodd" d="m25.18,7.03c-1.34,0-2.58.72-3.26,1.87-3.29,5.58-13.08,22.22-17.12,29.08-1.09,1.85-1.06,4.15.08,5.96,2.03,3.24,16.46-2.48,16.46-2.48l10.88-18.51-7.04-15.92Z"></path><path fill="#097a2b" fill-rule="evenodd" d="m25.18,7.03h13.65c.84,0,1.64.29,2.29.78l-9.11,15.51-9.11-15.51h0c.65-.49,1.44-.77,2.28-.78h0Z"></path><path fill="#ef3930" fill-rule="evenodd" d="m60,40.98c-.02,1.03-.31,2.05-.87,2.96-2.03,3.24-5.22,8.35-6.94,11.11-.25.4-.57.75-.93,1.04l-8.87-15.1h17.62Z"></path><path fill="#0267cc" fill-rule="evenodd" d="m4,40.98c.02,1.03.31,2.05.87,2.96,2.03,3.24,5.22,8.35,6.94,11.11.25.4.57.75.93,1.04l8.87-15.1H4Z"></path></svg>